{"title":"Harry Potter and the Half Blood Prince (2009) DVDRip XviD AC3 pe","uid":8821505,"size":736782336,"categoryP":"video","categoryS":"movies","magnet":"?xt=urn:btih:638131de0bfc93f4a41f83130108a1321683f2dd&amp;dn=Harry+Potter+and+the+Half+Blood+Prince+%282009%29+DVDRip+XviD+AC3+pe&amp;tr=udp%3A%2F%2Ftracker.openbittorrent.com%3A80&amp;tr=udp%3A%2F%2Fopen.demonii.com%3A1337&amp;tr=udp%3A%2F%2Ftracker.coppersurfer.tk%3A6969&amp;tr=udp%3A%2F%2Fexodus.desync.com%3A6969","seeders":12,"leechers":0,"uploader":"peaSoup","files":-1,"time":1376711395,"description":"Storyline\n\nIn the sixth year at Hogwarts School of Witchcraft, and in both wizard and muggle worlds Lord Voldemort and his henchmen are increasingly active. With vacancies to fill at Hogwarts, Professor Dumbledore persuades Horace Slughorn, back from retirement to become the potions teacher, while Professor Snape receives long awaited news. Harry Potter, together with Dumbledore, must face treacherous tasks to defeat his evil nemesis.                                                            &lt;a href=&quot; http://imageshack.us/a/img38/2146/ldj3.jpg&quot; rel=&quot;nofollow&quot; target=&quot;_NEW&quot;&gt; http://imageshack.us/a/img38/2146/ldj3.jpg&lt;/a&gt;                                          &lt;a href=&quot; http://imageshack.us/a/img834/1394/r85o.jpg&quot; rel=&quot;nofollow&quot; target=&quot;_NEW&quot;&gt; http://imageshack.us/a/img834/1394/r85o.jpg&lt;/a&gt;                                         &lt;a href=&quot; http://imageshack.us/a/img541/1414/hmbh.jpg&quot; rel=&quot;nofollow&quot; target=&quot;_NEW&quot;&gt; http://imageshack.us/a/img541/1414/hmbh.jpg&lt;/a&gt;                                         &lt;a href=&quot; http://imageshack.us/a/img153/8328/xlxa.jpg&quot; rel=&quot;nofollow&quot; target=&quot;_NEW&quot;&gt; http://imageshack.us/a/img153/8328/xlxa.jpg&lt;/a&gt;                                         &lt;a href=&quot; http://imageshack.us/a/img94/6587/rqwa.jpg&quot; rel=&quot;nofollow&quot; target=&quot;_NEW&quot;&gt; http://imageshack.us/a/img94/6587/rqwa.jpg&lt;/a&gt;                                           Format                                   : AVI\nFormat/Info                              : Audio Video Interleave\nFile size                                : 703 MiB\nDuration                                 : 2h 27mn\nOverall bit rate                         : 666 Kbps\nWriting application                      : VirtualDubMod 1.5.4.1 (build 2178/release)\nWriting library                          : VirtualDubMod build 2178/release\n\nVideo\nID                                       : 0\nFormat                                   : MPEG-4 Visual\nFormat profile                           : Advanced Simple@L5\nFormat settings, BVOP                    : 1\nFormat settings, QPel                    : No\nFormat settings, GMC                     : No warppoints\nFormat settings, Matrix                  : Custom\nCodec ID                                 : XVID\nCodec ID/Hint                            : XviD\nDuration                                 : 2h 27mn\nBit rate                                 : 275 Kbps\nWidth                                    : 576 pixels\nHeight                                   : 240 pixels\nDisplay aspect ratio                     : 2.40:1\nFrame rate                               : 25.000 fps\nColor space                              : YUV\nChroma subsampling                       : 4:2:0\nBit depth                                : 8 bits\nScan type                                : Progressive\nCompression mode                         : Lossy\nBits/(Pixel*Frame)                       : 0.080\nStream size                              : 290 MiB (41%)\nWriting library                          : XviD 1.2.1 (UTC 2008-12-04)\n\nAudio\nID                                       : 1\nFormat                                   : AC-3\nFormat/Info                              : Audio Coding 3\nMode extension                           : CM (complete main)\nFormat settings, Endianness              : Big\nCodec ID                                 : 2000\nDuration                                 : 2h 27mn\nBit rate mode                            : Constant\nBit rate                                 : 384 Kbps\nChannel(s)                               : 6 channels\nChannel positions                        : Front: L C R, Side: L R, LFE\nSampling rate                            : 48.0 KHz\nBit depth                                : 16 bits\nCompression mode                         : Lossy\nStream size                              : 405 MiB (58%)\nAlignment                                : Split accross interleaves\nInterleave, duration                     : 96 ms (2.40 video frames)\nInterleave, preload duration             : 96 ms\nLanguage                                 : English\n\n","torrent":{"xt":"urn:btih:638131de0bfc93f4a41f83130108a1321683f2dd","amp;dn":"Harry+Potter+and+the+Half+Blood+Prince+%282009%29+DVDRip+XviD+AC3+pe","amp;tr":["udp%3A%2F%2Ftracker.openbittorrent.com%3A80","udp%3A%2F%2Fopen.demonii.com%3A1337","udp%3A%2F%2Ftracker.coppersurfer.tk%3A6969","udp%3A%2F%2Fexodus.desync.com%3A6969"],"infoHash":"638131de0bfc93f4a41f83130108a1321683f2dd","infoHashBuffer":{"type":"Buffer","data":[99,129,49,222,11,252,147,244,164,31,131,19,1,8,161,50,22,131,242,221]},"announce":[],"urlList":[]}}